<svg width="263" height="90" fill="none" xmlns="http://www.w3.org/2000/svg"><path d="M4.861 68.674c1.076 0 1.792-.673 1.792-1.55 0-.874-.716-1.547-1.792-1.547H2.668v3.097h2.193Zm-.544-4.488c.76 0 1.448-.488 1.448-1.32 0-.844-.689-1.317-1.448-1.317H2.668v2.637h1.65Zm-3.37-4.101h3.642c1.907 0 2.94 1.234 2.94 2.481 0 .817-.402 1.548-1.062 1.964v.03c1.292.385 2.008 1.375 2.008 2.607 0 1.55-1.276 2.955-3.384 2.955H.947V60.085ZM18.968 60.085h1.72v10.036h-1.72V60.085Zm-4.847 5.291h-2.078v3.297h2.078c1.076 0 1.922-.602 1.922-1.649 0-1.045-.846-1.648-1.922-1.648Zm-2.078-5.29v3.842h2.222c2.351 0 3.571 1.492 3.571 3.096 0 1.607-1.22 3.097-3.57 3.097h-3.943V60.085h1.72ZM22.621 65.103c0-3.025 2.094-5.189 4.934-5.189a4.72 4.72 0 0 1 3.397 1.405l-1.119 1.118c-.588-.574-1.39-.962-2.278-.962-1.879 0-3.142 1.578-3.142 3.628 0 2.051 1.263 3.628 3.142 3.628.888 0 1.69-.388 2.278-.96l1.119 1.118c-.89.918-2.093 1.405-3.397 1.405-2.84 0-4.934-2.18-4.934-5.19ZM39.824 65.103c0-2.064-1.276-3.628-3.153-3.628-1.879 0-3.17 1.564-3.17 3.628s1.291 3.628 3.17 3.628c1.877 0 3.153-1.564 3.153-3.628Zm-8.114 0c0-3.025 2.108-5.189 4.961-5.189 2.837 0 4.945 2.164 4.945 5.19 0 3.025-2.108 5.19-4.945 5.19-2.853 0-4.961-2.165-4.961-5.19ZM43.55 60.085h1.72v4.101h1.292l3.024-4.1h2.023l-3.571 4.688 4.087 5.347h-2.123l-3.37-4.415H45.27v4.415h-1.72V60.085ZM60.266 65.103c0-2.064-1.276-3.628-3.154-3.628s-3.169 1.564-3.169 3.628 1.29 3.628 3.17 3.628c1.877 0 3.153-1.564 3.153-3.628Zm-8.115 0c0-3.025 2.108-5.189 4.961-5.189 2.838 0 4.946 2.164 4.946 5.19 0 3.025-2.108 5.19-4.946 5.19-2.853 0-4.96-2.165-4.96-5.19ZM63.317 65.103c0-3.025 2.094-5.189 4.934-5.189a4.72 4.72 0 0 1 3.397 1.405l-1.119 1.118c-.588-.574-1.39-.962-2.278-.962-1.879 0-3.142 1.578-3.142 3.628 0 2.051 1.263 3.628 3.142 3.628.888 0 1.69-.388 2.278-.96l1.12 1.118c-.89.918-2.094 1.405-3.398 1.405-2.84 0-4.934-2.18-4.934-5.19ZM73.294 60.085h1.72v4.101h1.292l3.024-4.1h2.023l-3.57 4.688 4.086 5.347h-2.123l-3.369-4.415h-1.363v4.415h-1.72V60.085ZM90.01 65.103c0-2.064-1.276-3.628-3.153-3.628-1.879 0-3.17 1.564-3.17 3.628s1.291 3.628 3.17 3.628c1.877 0 3.153-1.564 3.153-3.628Zm-8.114 0c0-3.025 2.108-5.189 4.96-5.189 2.838 0 4.946 2.164 4.946 5.19 0 3.025-2.108 5.19-4.945 5.19-2.853 0-4.961-2.165-4.961-5.19ZM97.291 64.888c1.12 0 1.792-.645 1.792-1.648 0-.99-.673-1.634-1.792-1.634h-1.834v3.282h1.834Zm-3.556-4.802h3.656c2.338 0 3.47 1.505 3.47 3.154 0 1.663-1.132 3.168-3.47 3.168h-1.934v3.714h-1.722V60.086ZM110.007 65.103c0-2.064-1.276-3.628-3.153-3.628-1.879 0-3.17 1.564-3.17 3.628s1.291 3.628 3.17 3.628c1.877 0 3.153-1.564 3.153-3.628Zm-8.115 0c0-3.025 2.108-5.189 4.962-5.189 2.837 0 4.945 2.164 4.945 5.19 0 3.025-2.108 5.19-4.945 5.19-2.854 0-4.962-2.165-4.962-5.19ZM113.059 65.103c0-3.025 2.093-5.189 4.933-5.189 1.304 0 2.508.501 3.397 1.405l-1.118 1.118c-.588-.574-1.391-.962-2.279-.962-1.879 0-3.141 1.578-3.141 3.628 0 2.051 1.262 3.628 3.141 3.628.888 0 1.691-.388 2.279-.96l1.118 1.118c-.889.918-2.093 1.405-3.397 1.405-2.84 0-4.933-2.18-4.933-5.19ZM125.402 61.605h-3.399v-1.52h8.704l-.488 1.52h-3.097v8.516h-1.72v-8.516ZM132.082 60.085h1.72v4.13h5.075v-4.13h1.721v10.036h-1.721v-4.387h-5.075v4.387h-1.72V60.085ZM148.065 66.409l-1.433-3.871h-.028l-1.422 3.87h2.883ZM142 70.122l3.9-10.037h1.52l3.9 10.037h-1.907l-.832-2.265h-3.928l-.819 2.265H142ZM158.229 64.788v-3.182h-2.223c-.889 0-1.749.544-1.749 1.563 0 1.045.86 1.62 1.749 1.62h2.223Zm-3.543 1.22v-.03c-1.476-.344-2.221-1.605-2.221-2.795 0-1.65 1.132-3.099 3.513-3.099h3.971v10.038h-1.72v-3.9h-1.807l-2.653 3.9h-2.064l2.981-4.115ZM164.535 70.122l3.226-10.036h1.433l2.439 7.297h.028l2.422-7.297h1.435l3.225 10.036h-1.877l-2.109-6.854h-.028l-2.308 6.854h-1.563l-2.309-6.854h-.028l-2.108 6.854h-1.878ZM185.092 66.409l-1.433-3.871h-.03l-1.42 3.87h2.883Zm-6.065 3.713 3.9-10.037h1.52l3.9 10.037h-1.907l-.832-2.265h-3.928l-.819 2.265h-1.834ZM189.75 60.085h6.293l-.558 1.52h-4.015v8.516h-1.72V60.085ZM197.376 60.085h1.663v7.47h.029l5.405-7.47h1.519v10.036h-1.663v-7.47h-.028l-5.392 7.47h-1.533V60.085ZM207.926 65.103c0-3.025 2.093-5.189 4.932-5.189 1.304 0 2.508.501 3.397 1.405l-1.118 1.118c-.587-.574-1.391-.962-2.279-.962-1.879 0-3.14 1.578-3.14 3.628 0 2.051 1.261 3.628 3.14 3.628.888 0 1.692-.388 2.279-.96l1.118 1.118c-.889.918-2.093 1.405-3.397 1.405-2.839 0-4.932-2.18-4.932-5.19ZM220.268 61.605h-3.398v-1.52h8.704l-.488 1.52h-3.096v8.516h-1.722v-8.516ZM230.503 64.888c1.119 0 1.792-.645 1.792-1.648 0-.99-.673-1.634-1.792-1.634h-1.835v3.282h1.835Zm-3.555-4.802h3.656c2.336 0 3.47 1.505 3.47 3.154 0 1.663-1.134 3.168-3.47 3.168h-1.936v3.714h-1.72V60.086ZM239.994 66.409l-1.433-3.871h-.028l-1.421 3.87h2.882Zm-6.065 3.713 3.9-10.037h1.52l3.9 10.037h-1.907l-.832-2.265h-3.928l-.818 2.265h-1.835ZM243.519 70.122v-1.507c.028.016.272.101.587.101.675 0 .904-.745 1.091-1.862.329-1.864.588-6.768.588-6.768h6.494v10.036h-1.721v-8.516h-3.24c-.071 1.089-.244 3.798-.501 5.418-.287 1.835-.818 3.242-2.394 3.242-.43 0-.876-.13-.904-.144ZM258.686 65.376h-2.079v3.298h2.079c1.076 0 1.923-.603 1.923-1.65 0-1.046-.847-1.648-1.923-1.648Zm-2.079-5.291v3.843h2.223c2.351 0 3.569 1.492 3.569 3.096 0 1.608-1.218 3.098-3.569 3.098h-3.943V60.085h1.72ZM.947 77.286h8.359v10.036h-1.72v-8.516H2.667v8.516H.947V77.286ZM15.469 82.09c1.119 0 1.792-.646 1.792-1.648 0-.99-.673-1.635-1.792-1.635h-1.835v3.282h1.835Zm-3.556-4.803h3.656c2.337 0 3.47 1.505 3.47 3.154 0 1.663-1.133 3.168-3.47 3.168h-1.935v3.714h-1.721V77.287ZM28.184 82.305c0-2.064-1.276-3.628-3.153-3.628-1.878 0-3.17 1.564-3.17 3.628s1.291 3.628 3.17 3.628c1.878 0 3.154-1.564 3.154-3.628Zm-8.114 0c0-3.026 2.108-5.19 4.961-5.19 2.838 0 4.946 2.164 4.946 5.19 0 3.025-2.108 5.19-4.946 5.19-2.853 0-4.961-2.165-4.961-5.19ZM31.91 77.286h6.681l-.558 1.52H33.63v2.595h3.07v1.52h-3.07v2.881h5.09v1.52h-6.81V77.286ZM40.482 77.286h1.72v4.102h1.292l3.024-4.102h2.023l-3.57 4.69 4.086 5.346h-2.123l-3.37-4.414h-1.362v4.414h-1.72V77.286ZM52.625 78.806h-3.399v-1.52h8.704l-.488 1.52h-3.097v8.517h-1.72v-8.516ZM62.228 77.286h8.359v10.036h-1.72v-8.516h-4.919v8.516h-1.72V77.286ZM76.75 82.09c1.118 0 1.792-.646 1.792-1.648 0-.99-.674-1.635-1.792-1.635h-1.835v3.282h1.835Zm-3.556-4.803h3.656c2.337 0 3.47 1.505 3.47 3.154 0 1.663-1.133 3.168-3.47 3.168h-1.935v3.714h-1.721V77.287ZM82.025 77.286h6.681l-.559 1.52h-4.402v2.595h3.069v1.52h-3.07v2.881h5.091v1.52h-6.81V77.286ZM89.55 86.105l1.133-1.134c.602.531 1.463.962 2.508.962 1.248 0 2.08-.59 2.08-1.535 0-.947-.66-1.49-2.036-1.49h-1.29v-1.463h1.29c1.118 0 1.807-.546 1.807-1.42 0-.89-.775-1.348-1.779-1.348-.86 0-1.692.373-2.278.874l-1.106-1.104c.904-.845 2.18-1.332 3.484-1.332 2.166 0 3.442 1.146 3.442 2.652 0 1.348-1.132 2.064-1.506 2.208v.028c1.176.416 1.807 1.391 1.807 2.438 0 1.649-1.463 3.054-3.828 3.054-1.535 0-2.839-.501-3.728-1.39ZM99.068 77.286h1.664v7.47h.028l5.406-7.47h1.52v10.036h-1.664v-7.47h-.028l-5.391 7.47h-1.535V77.286ZM111.812 85.803h4.387v-6.996h-3.312c-.056.846-.143 2.637-.315 4.144-.144 1.232-.388 2.164-.76 2.824v.028Zm-2.596 0h.69c.544-.387.845-1.391 1.104-3.298.244-1.806.372-5.218.372-5.218h6.552v8.516h1.29V89.4h-1.533v-2.078h-6.94V89.4h-1.535v-3.598ZM121.044 77.286h6.681l-.559 1.52h-4.402v2.595h3.069v1.52h-3.069v2.881h5.09v1.52h-6.81V77.286ZM129.616 77.286h1.721v4.13h5.075v-4.13h1.72v10.036h-1.72v-4.386h-5.075v4.386h-1.721V77.286ZM143.105 78.806h-3.399v-1.52h8.704l-.488 1.52h-3.097v8.517h-1.72v-8.516ZM153.699 83.61l-1.433-3.87h-.03l-1.42 3.87h2.883Zm-6.065 3.713 3.9-10.037h1.52l3.9 10.037h-1.907l-.832-2.265h-3.928l-.819 2.265h-1.834ZM164.951 82.09c1.119 0 1.792-.646 1.792-1.648 0-.99-.673-1.635-1.792-1.635h-1.834v3.282h1.834Zm-3.554-4.803h3.656c2.336 0 3.469 1.505 3.469 3.154 0 1.663-1.133 3.168-3.469 3.168h-1.936v3.714h-1.72V77.287ZM178.613 82.233c0-1.592-1.119-2.466-2.809-2.537v5.075c1.69-.087 2.809-.946 2.809-2.538Zm-4.531-2.537c-1.692.07-2.824.945-2.824 2.537s1.132 2.451 2.824 2.538v-5.075Zm-4.602 2.537c0-2.409 2.021-3.957 4.602-4.029v-1.09h1.722v1.09c2.58.072 4.588 1.62 4.588 4.03 0 2.393-2.008 3.942-4.588 4.013v1.248h-1.722v-1.248c-2.581-.07-4.602-1.62-4.602-4.014ZM21.19 41.297c4.688 0 7.316-3.338 7.316-6.32 0-2.983-2.628-6.322-7.316-6.322h-9.446v12.642h9.446Zm-1.917-21.38c2.415 0 5.54-1.774 5.54-5.042 0-3.48-3.125-5.185-5.54-5.185h-7.53v10.228h7.53ZM.948.6H21.12c9.446 0 14.702 5.681 14.702 11.932 0 3.906-1.705 7.103-5.682 9.944v.142c7.601 2.345 9.66 7.814 9.66 12.643 0 7.67-5.966 15.059-17.188 15.059H.948V.599ZM46.2 25.458c0-14.49 10.714-24.86 23.83-24.86 6.044 0 12.019 2.541 16.345 7.21l-6.936 6.937c-2.198-2.335-4.808-4.395-9.34-4.395-7.692 0-12.841 6.592-12.841 15.108 0 8.516 5.15 15.108 12.841 15.108 4.395 0 7.142-1.99 9.34-4.257l6.936 6.936a22.474 22.474 0 0 1-16.345 7.073c-13.116 0-23.83-10.439-23.83-24.86ZM89.334 50.318 105.671.598h8.452l11.507 33.668h.143L137.137.598h8.452l16.265 49.72h-12.003l-8.737-28.98h-.141l-10.371 28.98h-10.015l-10.37-28.98h-.143l-8.736 28.98H89.334Z" fill="#082A99"/><path d="M211.709 17.446c13.153 4.145 22.209 8.57 24.745 9.865l20.732.234c-8.144-4.316-19.032-9.49-29.579-13.743C206.575 5.323 184.087.598 161.41.598h-3.141l3.037 8.932c12.612-.143 29.888 1.45 50.403 7.916Z" fill="#EEE"/><path d="m237.091 33.685-7.393 8.469h-57.296l2.776 8.164h48.2c25.456.04 33.34-6.316 34.616-7.136l4.404-9.212-25.307-.285Z" fill="#FD033A"/><path d="M230.534 31.516c-4.096-1.911-11.444-5.078-20.884-8.044-11.445-3.596-28.044-7.514-46.185-7.592l6.771 19.909h56.568l3.73-4.273Z" fill="#082A99"/></svg>